# xmcd
#
# Track frame offsets: 
#        150
#        10781
#        22837
#        39207
#        50102
#        60982
#        77061
#        90333
#        101995
#        113717
#        125009
#        142806
#        155659
#        166891
#        179011
#
# Disc length: 2547 seconds
#
# Revision: 0
# Processed by: cddbd v1.5.2PL0 Copyright (c) Steve Scherf et al.
# Submitted via: ExactAudioCopy v0.99pb4
#
DISCID=b709f10f
DTITLE=Various Artist - Soul Divas CD1 - Soul 60's and 70's
DYEAR=2008
DGENRE=Soul
TTITLE0=Barbara Lynn - I'm A Woman
TTITLE1=Lynn Collins - Think (About It)
TTITLE2=Patti Jo - Make Me Believe In You
TTITLE3=The Trinikas - Remember Me
TTITLE4=Marie "Queenie" Lyons - Your Thing Ain't No Good Without My Th
TTITLE4=ing
TTITLE5=Esther Williams - Last Night Changed It All
TTITLE6=Florence Miller - The Groove I'm In
TTITLE7=Pearl Dowdell - Good Things
TTITLE8=Veniece - Stepchild
TTITLE9=The Fawns - Girl In Trouble
TTITLE10=Kathleen Emerey - Sometimes I Feel Like A Motherless Child
TTITLE11=Letta Mbulu - What's Wrong With Groovin'
TTITLE12=Sandi and Matues - The World [Part One]
TTITLE13=Ann Peebles - I'm Gonna Tear Your Playhouse Down
TTITLE14=The Shirelles - Baby It's You
EXTD=
EXTT0=
EXTT1=
EXTT2=
EXTT3=
EXTT4=
EXTT5=
EXTT6=
EXTT7=
EXTT8=
EXTT9=
EXTT10=
EXTT11=
EXTT12=
EXTT13=
EXTT14=
PLAYORDER=
